PathFileType	4	(X/Y/Z)	C:\Users\Basilio\Documents\Thesis Gigler\squatting_fais\c3dfiles\077\SLS_front_pre4\markers_experimental.trc
DataRate	CameraRate	NumFrames	NumMarkers	Units	OrigDataRate	OrigDataStartFrame	OrigNumFrames
200.000000	200.000000	4	60	mm	200.000000	793	1586
Frame#	Time	FHD			RBHD			C7			T10			CLAV			LSHO			LUUPA			LMUPA			LDUPA			LLEP			LMEP			LRAD			LUL			LRFIN			RSHO			RUPA1			RMUPA			RDUPA			RLEP			RMEP			RRAD			RUL			RUFIN			LASI			RASI			USACR			LSACR			RSACR			LTHI1			LTHI2			LTHI3			LTHI4			LLFC			LMFC			LTIB1			LTIB2			LTIB3			LTIB4			LLMAL			LHEE			LMT1			LMT2			LMT5			RTHI			RTHI2			RTHI3			RTHI4			RLFC			RMFC			RTIB1			RTIB2			RTIB3			RTIB4			RLMAL			RMMAL			RHEE			RMT1			RMT2			RMT5			LBHD			
		X1	Y1	Z1	X2	Y2	Z2	X3	Y3	Z3	X4	Y4	Z4	X5	Y5	Z5	X6	Y6	Z6	X7	Y7	Z7	X8	Y8	Z8	X9	Y9	Z9	X10	Y10	Z10	X11	Y11	Z11	X12	Y12	Z12	X13	Y13	Z13	X14	Y14	Z14	X15	Y15	Z15	X16	Y16	Z16	X17	Y17	Z17	X18	Y18	Z18	X19	Y19	Z19	X20	Y20	Z20	X21	Y21	Z21	X22	Y22	Z22	X23	Y23	Z23	X24	Y24	Z24	X25	Y25	Z25	X26	Y26	Z26	X27	Y27	Z27	X28	Y28	Z28	X29	Y29	Z29	X30	Y30	Z30	X31	Y31	Z31	X32	Y32	Z32	X33	Y33	Z33	X34	Y34	Z34	X35	Y35	Z35	X36	Y36	Z36	X37	Y37	Z37	X38	Y38	Z38	X39	Y39	Z39	X40	Y40	Z40	X41	Y41	Z41	X42	Y42	Z42	X43	Y43	Z43	X44	Y44	Z44	X45	Y45	Z45	X46	Y46	Z46	X47	Y47	Z47	X48	Y48	Z48	X49	Y49	Z49	X50	Y50	Z50	X51	Y51	Z51	X52	Y52	Z52	X53	Y53	Z53	X54	Y54	Z54	X55	Y55	Z55	X56	Y56	Z56	X57	Y57	Z57	X58	Y58	Z58	X59	Y59	Z59	X60	Y60	Z60	

794	3.965	-286.0275573730469	1631.665405273438	-1075.630859375	-423.4895629882814	1501.866821289063	-1011.9443359375	-452.5430603027345	1375.98193359375	-1102.234985351563	-480.4260864257814	1046.530639648438	-1053.86767578125	-287.8710327148438	1326.749633789063	-1089.429443359375	-300.7794494628907	1362.564453125	-1261.7197265625	-132.6784973144532	1318.4404296875	-1363.355224609375	-103.7845764160157	1347.942260742188	-1334.923095703125	-63.99007415771486	1316.855102539063	-1369.247680664063	-0.01557174045592547	1327.308471679688	-1365.283569335938	6.996160984039308	1256.57421875	-1337.110717773438	294.5274047851563	1356.681762695313	-1254.541870117188	298.1657409667969	1368.8427734375	-1333.260375976563	391.1954650878907	1385.148803710938	-1259.185302734375	-306.5418701171876	1371.155517578125	-929.1882324218752	-153.3955078125	1337.861694335938	-811.7774658203127	-126.4305496215821	1365.65380859375	-842.7723388671877	-83.63399505615236	1340.088500976563	-807.3232421875002	-17.61679458618164	1347.8759765625	-814.877380371094	-10.44399166107178	1275.908569335938	-842.716491699219	269.5428161621094	1381.150146484375	-915.710632324219	277.1790771484376	1391.256713867188	-832.7186279296877	362.2919006347657	1406.666259765625	-911.761169433594	-284.5267639160157	870.2183837890627	-1172.222412109375	-299.7149658203126	882.3999023437502	-896.4237060546877	-487.8203430175782	921.2048950195315	-1036.847900390625	-491.1486206054689	893.4253540039065	-1067.13525390625	-493.8835754394532	887.008483886719	-1012.453002929688	-242.3067474365235	671.4255981445314	-1239.809326171875	-172.3246765136719	624.9707641601564	-1245.319213867188	-133.0245361328125	653.6205444335939	-1243.155395507813	-166.1450958251953	565.4694213867189	-1234.041259765625	-64.96263122558595	452.4898376464845	-1210.180908203125	-39.86361694335938	447.6866149902345	-1078.385375976563	-142.837631225586	268.4456481933594	-1094.20458984375	-201.2791442871094	236.8096008300782	-1155.957275390625	-177.0807495117188	225.9799804687501	-1119.002197265625	-227.656967163086	179.6661987304688	-1070.39892578125	-344.8913269042969	108.0319747924805	-1095.369873046875	-416.2305297851564	91.77361297607423	-1035.90625	-203.0036773681641	54.83541488647462	-1050.708618164063	-211.9426879882813	37.64195632934571	-1096.947021484375	-313.5107421875001	131.8070220947266	-1014.881469726563	-96.51503753662112	677.4014282226564	-835.5906372070315	-30.43678283691407	691.0603027343751	-837.269470214844	-17.74642753601075	722.7550659179689	-843.1775512695315	27.99444961547852	634.5967407226564	-852.726501464844	80.76498413085939	598.3414306640626	-855.8298339843752	107.0996704101563	618.4893798828126	-981.4715576171877	211.3436584472657	534.3714599609376	-880.8316040039065	216.8430938720704	431.5723266601564	-854.311462402344	250.2664337158204	457.318572998047	-874.937438964844	281.2265014648438	430.1550598144532	-917.550231933594	353.6997680664063	248.0160827636719	-889.6413574218752	364.0636901855469	278.3246154785157	-975.8177490234377	341.0707702636719	175.2806701660157	-951.6602783203127	497.9929199218751	339.7796936035157	-932.1918945312502	493.9587402343751	333.9444885253907	-894.010192871094	498.2832641601564	302.5461730957032	-849.455017089844	-414.0232238769532	1516.871826171875	-1157.12548828125	
795	3.97	-285.7471313476563	1631.479125976563	-1076.525756835938	-423.2891235351564	1500.703979492188	-1012.835144042969	-452.0824584960939	1375.4208984375	-1103.152587890625	-480.5647888183595	1046.36279296875	-1053.461059570313	-287.3704833984376	1326.304077148438	-1090.117309570313	-300.5820922851563	1361.844482421875	-1262.634155273438	-132.0734252929688	1317.257080078125	-1363.6123046875	-103.5240707397461	1346.775390625	-1335.46142578125	-63.30077362060548	1315.79443359375	-1369.788940429688	0.4471905529499055	1326.098510742188	-1365.613403320313	7.660322189331056	1255.530883789063	-1337.015014648438	295.0051269531251	1355.763061523438	-1254.864990234375	298.0447692871094	1367.852661132813	-1333.60986328125	391.5332641601564	1384.206298828125	-1259.500244140625	-306.1324768066407	1371.114501953125	-930.2117919921877	-153.1630859375	1337.794921875	-812.8508911132815	-126.2350387573242	1365.6181640625	-843.7912597656252	-83.27819824218751	1340.384033203125	-807.997497558594	-17.25550079345703	1347.915405273438	-815.623962402344	-10.0671968460083	1275.946899414063	-843.1517333984377	267.1123046875001	1379.03076171875	-911.0364990234377	277.9220581054688	1391.48583984375	-832.7820434570315	362.8662719726563	1406.420776367188	-912.1533813476565	-285.0225219726563	869.2777099609377	-1171.765625	-299.9227600097657	882.078308105469	-896.0086059570315	-488.0072631835939	921.0327758789065	-1036.185791015625	-491.4759826660157	893.1911621093752	-1066.5302734375	-494.116180419922	886.9585571289065	-1011.802917480469	-242.6463317871094	671.2583618164064	-1239.693359375	-172.6526947021485	624.9598388671876	-1245.246704101563	-133.5908203125	653.6682739257814	-1243.281005859375	-166.3645172119141	565.3497314453126	-1234.0263671875	-65.20969390869142	452.5467834472657	-1210.56591796875	-39.91009140014649	447.6267089843751	-1078.71728515625	-142.3133239746094	269.1356506347657	-1094.264526367188	-201.3403625488282	236.8670959472657	-1156.10009765625	-177.211898803711	226.0882110595704	-1119.349365234375	-227.6758117675782	179.5855712890625	-1070.638671875	-344.8301696777344	107.994873046875	-1095.472778320313	-416.2325439453126	91.83770751953126	-1035.97216796875	-202.8281402587891	54.87858963012697	-1050.704711914063	-211.8879852294922	37.54906845092774	-1096.928466796875	-313.3651733398438	131.9061126708985	-1015.029052734375	-96.58933258056643	677.2402343750001	-835.2071533203127	-30.55119514465333	691.0190429687501	-836.8955078125002	-17.89743423461914	722.9552001953126	-842.6531982421877	27.97168159484864	634.7221679687501	-852.342224121094	80.84572601318361	598.4480590820314	-855.4802856445315	107.1828002929688	618.6433715820314	-981.1978149414065	211.382797241211	534.4785766601564	-880.6006469726565	216.8944244384766	431.780487060547	-854.122253417969	250.3467254638672	457.4232177734376	-874.6499633789065	281.2541503906251	430.4204406738282	-917.4563598632815	353.8471069335938	248.2616882324219	-889.5025634765627	363.9221191406251	278.5901184082032	-975.6641845703127	341.2626342773438	175.6321258544922	-951.375915527344	497.9955444335939	340.0419311523438	-932.137390136719	494.0180664062501	334.1394042968751	-894.0134887695315	498.4758300781251	303.0130615234376	-849.3806152343752	-413.3223266601564	1516.154052734375	-1158.12255859375	
796	3.975	-285.3712463378907	1631.064208984375	-1077.546997070313	-422.8297729492189	1500.622192382813	-1014.04931640625	-451.6126098632814	1375.007690429688	-1104.19775390625	-480.7053222656251	1046.217895507813	-1053.113525390625	-287.2119445800782	1325.586059570313	-1090.958862304688	-300.7805175781251	1360.2880859375	-1263.50048828125	-131.9447174072266	1316.284545898438	-1364.419799804688	-102.5913543701172	1345.76611328125	-1336.000366210938	-63.16287231445314	1314.647216796875	-1370.40869140625	1.050942063331604	1324.9384765625	-1366.043090820313	8.012474060058596	1254.588745117188	-1337.764892578125	296.2866821289063	1354.90185546875	-1254.541259765625	298.3606872558594	1366.761474609375	-1333.869995117188	392.2384033203126	1383.619140625	-1259.543090820313	-305.8028564453126	1370.942260742188	-931.105407714844	-152.8037261962891	1338.182006835938	-813.677917480469	-125.6989517211914	1365.848266601563	-844.586364746094	-83.04495239257814	1340.507446289063	-808.780456542969	-16.90672302246094	1347.958129882813	-816.3795166015627	-9.693869590759279	1276.118408203125	-843.591247558594	267.6453857421876	1379.795654296875	-911.8345336914065	278.2365112304688	1391.227172851563	-833.0847167968752	363.3341979980469	1406.171630859375	-912.4725341796877	-285.3645629882813	868.6862792968752	-1171.277221679688	-300.1254882812501	881.9293212890627	-895.5547485351565	-488.1363220214845	920.976989746094	-1035.685546875	-491.7165832519532	892.9906005859377	-1065.964233398438	-494.4354248046876	886.7517089843752	-1011.197631835938	-243.1599273681641	671.1462402343751	-1239.324951171875	-174.3038024902344	625.5526733398439	-1245.60302734375	-134.7465972900391	653.9736938476564	-1243.655517578125	-167.7958374023438	565.6870727539064	-1234.105102539063	-66.70061492919923	453.1514587402345	-1211.31201171875	-39.80989456176759	447.7176208496095	-1078.9873046875	-142.3159790039063	269.1484069824219	-1094.540649414063	-201.5310516357422	236.9928131103516	-1156.28662109375	-177.23828125	226.2115020751954	-1119.590209960938	-227.7194824218751	179.4785919189453	-1070.821044921875	-344.9221496582032	108.1327056884766	-1095.581176757813	-416.203338623047	91.83534240722658	-1036.047729492188	-203.0789184570313	54.85430145263673	-1050.786987304688	-212.0046844482422	37.53539276123048	-1097.017944335938	-313.3095092773438	131.9700317382813	-1015.166748046875	-96.80882263183597	677.3112792968751	-834.616394042969	-30.64074325561524	691.0568847656251	-836.503112792969	-18.12442207336426	722.7907714843751	-842.1214599609377	27.95453834533692	634.6771850585939	-852.0131835937502	80.85654449462892	598.4994506835939	-855.1589355468752	106.9860763549805	618.7650146484376	-980.8431396484377	211.4839782714844	534.6288452148439	-880.351013183594	216.9568328857422	431.9326477050782	-854.0271606445315	250.3949737548829	457.5179748535157	-874.466491699219	281.2520141601563	430.7498474121095	-917.2824707031252	354.0073547363282	248.5196228027344	-889.3861083984377	363.9278869628907	278.7783813476563	-975.7219848632815	341.4822387695313	175.8043670654297	-951.4898681640627	498.0933532714845	340.4092102050782	-932.194519042969	494.3452148437501	334.7363281250001	-893.963806152344	498.541473388672	303.1367187500001	-849.4031982421877	-412.7981262207032	1515.430053710938	-1159.142822265625	
797	3.98	-285.0531616210938	1630.524047851563	-1078.61572265625	-422.5848083496095	1500.146118164063	-1015.023315429688	-451.258514404297	1374.6064453125	-1105.093139648438	-480.7557067871095	1046.11328125	-1052.841796875	-286.8153686523438	1324.98779296875	-1091.717041015625	-299.5737304687501	1359.922119140625	-1264.305908203125	-131.2976531982422	1315.009765625	-1364.998291015625	-101.9525299072266	1344.621704101563	-1336.512573242188	-62.58014297485353	1313.651000976563	-1370.897338867188	1.609480738639832	1323.9384765625	-1366.5322265625	8.336782455444338	1253.467407226563	-1338.031372070313	295.9446105957032	1353.623901367188	-1255.446533203125	299.3128356933594	1365.7236328125	-1334.179077148438	392.3540649414064	1382.032348632813	-1260.0322265625	-305.2869262695313	1370.962646484375	-932.0701904296877	-152.5145874023438	1338.47509765625	-814.6287841796877	-125.3335037231446	1366.024291992188	-845.4368896484377	-82.7139129638672	1340.816284179688	-809.5531005859377	-16.54526519775391	1348.11279296875	-817.169860839844	-9.420069694519045	1276.155517578125	-843.927185058594	268.0269470214844	1379.460205078125	-912.192321777344	278.6126098632813	1391.004760742188	-833.5115356445315	363.7929382324219	1405.838012695313	-912.7330322265627	-285.6462402343751	868.5643310546877	-1170.762817382813	-300.3046264648438	881.7576904296877	-895.0179443359377	-488.2938537597657	920.930603027344	-1035.134643554688	-491.9811401367189	892.8953857421877	-1065.374389648438	-494.7650756835939	886.5479125976565	-1010.626953125	-243.8431701660157	670.8104858398439	-1238.860717773438	-174.7406005859375	625.3380126953126	-1245.448852539063	-134.2850952148438	653.4555664062501	-1243.175903320313	-168.184799194336	565.6084594726564	-1233.9853515625	-65.52636718750001	452.8186645507814	-1211.093139648438	-39.81132125854493	447.7555541992189	-1079.259765625	-142.2728729248047	269.0943908691407	-1094.734619140625	-201.5038299560547	237.0497436523438	-1156.5205078125	-177.2244262695313	226.4085235595704	-1119.756591796875	-227.6901550292969	179.4477233886719	-1071.057250976563	-344.8200378417969	108.1192703247071	-1095.666870117188	-416.1815490722657	91.8567581176758	-1036.140380859375	-202.9726104736329	54.85213088989259	-1050.858642578125	-212.0068511962891	37.55257034301759	-1097.03564453125	-313.2143554687501	131.952621459961	-1015.281921386719	-96.78736114501956	677.0432739257814	-834.3540039062502	-30.77929496765137	690.9701538085939	-836.025573730469	-18.34201622009278	722.7423706054689	-841.7266235351565	27.83952713012696	634.6536865234376	-851.6995849609377	80.9037322998047	598.6666259765626	-854.8250732421877	106.8484039306641	618.8629760742189	-980.4772949218752	211.4521179199219	534.8236083984376	-880.0967407226565	217.0823059082032	432.0516052246095	-853.7618408203127	250.5076293945313	457.7316894531251	-874.3081054687502	281.3904418945313	430.9352111816407	-917.042175292969	354.2060241699219	248.7749023437501	-889.2614746093752	364.0679016113282	279.0075683593751	-975.6489257812502	341.6825256347657	176.2209014892578	-951.3227539062502	498.1774291992189	340.8377380371094	-932.2339477539065	494.2933959960939	335.1547546386719	-893.9499511718752	498.7221984863282	303.5155334472657	-849.3858032226565	-412.4668884277345	1514.627685546875	-1160.265991210938	
